{"glyphs":{":":{"x_min":0,"x_max":325,"ha":325,"o":"m 84 0 l 84 157 l 241 157 l 241 0 z m 84 392 l 84 548 l 241 548 l 241 392 z"},"$":{"x_min":0,"x_max":663,"ha":663,"o":"m 302 -78 l 302 1 q 185 9 100 39 l 100 166 l 178 166 l 178 120 q 235 83 302 74 l 302 321 l 282 334 q 190 395 156 438 q 123 482 123 543 q 123 616 172 665 q 221 713 302 722 l 302 801 l 375 801 l 375 722 q 459 717 540 689 l 540 573 l 462 573 l 462 619 q 423 644 375 649 l 375 421 l 423 391 q 560 305 560 199 q 560 121 508 65 q 456 10 375 1 l 375 -78 z m 362 77 q 439 104 439 176 q 439 206 420 232 q 401 259 362 281 z m 314 461 l 314 647 q 242 631 242 561 q 242 535 260 510 q 278 485 314 461 z"},"?":{"x_min":0,"x_max":536,"ha":536,"o":"m 157 0 l 157 121 l 301 121 l 301 0 z m 157 205 l 157 211 q 157 289 229 359 l 253 383 q 337 465 337 552 q 337 605 306 637 q 275 668 222 668 q 197 668 175 662 q 152 655 131 642 l 125 575 l 47 575 l 47 708 q 90 725 140 733 q 190 741 246 741 q 359 741 425 696 q 491 651 491 575 q 491 500 411 429 l 379 402 q 324 354 313 326 q 301 297 301 211 l 301 205 z"},"<":{"x_min":0,"x_max":663,"ha":663,"o":"m 597 24 l 66 288 l 597 554 l 597 451 l 269 288 l 597 126 z"},"'":{"x_min":0,"x_max":277,"ha":277,"o":"m 102 470 l 60 771 l 217 771 l 174 470 z"},"=":{"x_min":0,"x_max":663,"ha":663,"o":"m 66 142 l 66 232 l 597 232 l 597 142 z m 66 340 l 66 431 l 597 431 l 597 340 z"},"a":{"x_min":0,"x_max":589,"ha":589,"o":"m 362 62 q 324 25 283 6 q 243 -12 201 -12 q 129 -12 83 32 q 36 76 36 144 q 36 235 104 278 q 172 321 318 321 l 342 321 l 342 384 q 342 476 252 476 q 204 476 162 444 l 155 397 l 77 397 l 77 503 q 175 548 276 548 q 487 548 487 386 l 487 150 q 487 72 528 72 q 536 72 547 74 l 553 0 q 516 -12 479 -12 q 400 -12 362 62 z m 342 118 l 342 256 l 323 256 q 250 256 214 232 q 178 208 178 160 q 178 125 199 102 q 221 78 253 78 q 274 78 296 88 q 319 98 342 118 z"},"L":{"x_min":0,"x_max":608,"ha":608,"o":"m 589 0 l 39 0 l 39 72 l 111 72 l 111 650 l 39 650 l 39 723 l 334 723 l 334 650 l 262 650 l 262 78 l 510 78 l 510 157 l 589 157 z"},"3":{"x_min":0,"x_max":663,"ha":663,"o":"m 93 10 l 93 133 l 171 133 l 178 79 q 205 67 231 61 q 258 54 285 54 q 346 54 383 93 q 421 131 421 193 q 421 267 369 307 q 316 346 218 346 l 166 346 l 166 418 l 208 418 q 304 418 353 453 q 401 487 401 556 q 401 612 371 640 q 340 668 280 668 q 256 668 233 663 q 209 657 185 646 l 179 592 l 101 592 l 101 707 q 147 724 200 733 q 253 741 312 741 q 422 741 485 696 q 547 650 547 571 q 547 504 507 458 q 466 413 385 389 q 478 370 525 320 q 571 271 571 192 q 571 95 497 38 q 423 -18 296 -18 q 236 -18 185 -11 q 134 -4 93 10 z"},";":{"x_min":0,"x_max":325,"ha":325,"o":"m 84 392 l 84 548 l 241 548 l 241 392 z m 84 -145 l 84 -90 q 137 -85 145 0 l 84 0 l 84 157 l 241 157 l 241 36 q 241 -132 84 -145 z"},"J":{"x_min":0,"x_max":470,"ha":470,"o":"m 0 -128 l 0 -6 l 84 -6 l 84 -57 q 113 -72 141 -72 q 182 -72 198 -42 q 214 -13 214 63 l 214 650 l 129 650 l 129 723 l 437 723 l 437 650 l 364 650 l 364 115 q 364 -25 310 -85 q 256 -145 129 -145 q 67 -145 0 -128 z"},"V":{"x_min":0,"x_max":735,"ha":735,"o":"m 337 -9 l 70 650 l 28 650 l 28 723 l 305 723 l 305 650 l 232 650 l 411 213 l 587 650 l 515 650 l 515 723 l 709 723 l 709 650 l 667 650 l 410 -9 z"},"\"":{"x_min":0,"x_max":482,"ha":482,"o":"m 96 482 l 60 771 l 205 771 l 168 482 z m 313 482 l 277 771 l 421 771 l 385 482 z"},"7":{"x_min":0,"x_max":663,"ha":663,"o":"m 134 0 q 156 119 217 225 q 277 331 477 603 l 108 603 l 108 723 l 603 723 l 603 631 q 311 275 296 0 z"},"S":{"x_min":0,"x_max":571,"ha":571,"o":"m 53 11 l 53 171 l 137 171 l 137 96 q 173 74 205 62 q 237 51 265 51 q 319 51 353 81 q 386 110 386 158 q 386 204 365 232 q 343 260 283 293 l 235 319 q 137 374 95 424 q 54 475 54 539 q 54 628 118 684 q 183 741 284 741 q 337 741 390 733 q 442 726 494 711 l 494 564 l 410 564 l 410 634 q 379 653 350 662 q 321 672 294 672 q 252 672 223 643 q 194 613 194 571 q 194 537 215 513 q 236 488 294 455 l 343 426 q 449 366 489 317 q 529 268 529 200 q 529 101 455 41 q 381 -18 259 -18 q 213 -18 162 -11 q 110 -3 53 11 z"},"}":{"x_min":0,"x_max":363,"ha":363,"o":"m 205 313 q 101 359 101 472 q 101 508 111 562 l 117 597 q 122 625 122 644 q 122 695 55 699 l 55 771 l 90 771 q 162 771 210 729 q 259 686 259 624 q 259 588 245 529 l 233 478 q 224 438 224 418 q 224 350 288 350 l 307 350 l 307 277 l 288 277 q 224 277 224 210 q 224 188 233 149 l 245 97 q 259 38 259 3 q 259 -60 210 -102 q 162 -145 90 -145 l 55 -145 l 55 -72 q 122 -68 122 -17 q 122 1 117 29 l 111 64 q 101 119 101 155 q 101 267 205 313 z"},"Z":{"x_min":0,"x_max":650,"ha":650,"o":"m 56 0 l 56 66 l 421 650 l 151 650 l 151 578 l 73 578 l 73 723 l 589 723 l 589 654 l 230 78 l 512 78 l 512 154 l 590 154 l 590 0 z"},"x":{"x_min":0,"x_max":568,"ha":568,"o":"m 215 256 l 66 464 l 24 464 l 24 536 l 264 536 l 264 464 l 222 464 l 306 348 l 398 464 l 356 464 l 356 536 l 527 536 l 527 464 l 484 464 l 346 291 l 452 145 l 504 72 l 546 72 l 546 0 l 306 0 l 306 72 l 349 72 l 257 198 l 156 72 l 198 72 l 198 0 l 26 0 l 26 72 l 68 72 z"},")":{"x_min":0,"x_max":363,"ha":363,"o":"m 54 705 l 54 777 q 173 713 244 586 q 315 459 315 312 q 315 168 243 40 q 171 -87 54 -151 l 54 -78 q 170 36 170 313 q 170 591 54 705 z"},"&":{"x_min":0,"x_max":780,"ha":780,"o":"m 529 0 q 513 13 491 41 q 402 -18 305 -18 q 189 -18 111 48 q 34 115 34 214 q 34 365 218 429 q 161 517 161 579 q 161 647 216 694 q 271 741 352 741 q 441 741 495 698 q 549 656 549 586 q 549 528 510 488 q 471 447 378 411 q 471 264 540 180 q 591 225 591 331 l 542 331 l 542 404 l 748 404 l 748 332 l 693 332 q 676 213 584 125 l 627 72 l 694 72 l 694 0 z m 343 467 q 428 513 428 591 q 428 628 412 647 q 395 666 362 666 q 327 666 310 647 q 292 629 292 593 q 292 539 343 467 z m 450 92 q 371 184 254 371 q 171 328 171 243 q 171 171 226 118 q 280 65 354 65 q 404 65 450 92 z"},"_":{"x_min":0,"x_max":500,"ha":500,"o":"m 45 -90 l 45 0 l 455 0 l 455 -90 z"},"v":{"x_min":0,"x_max":618,"ha":618,"o":"m 267 -6 l 58 464 l 15 464 l 15 536 l 274 536 l 274 464 l 214 464 l 344 172 l 474 464 l 413 464 l 413 536 l 590 536 l 590 464 l 548 464 l 339 -6 z"},"O":{"x_min":0,"x_max":822,"ha":822,"o":"m 411 -18 q 243 -18 146 83 q 48 185 48 361 q 48 538 146 639 q 243 741 411 741 q 580 741 677 639 q 774 538 774 361 q 774 185 677 83 q 580 -18 411 -18 z m 411 54 q 503 54 559 138 q 615 223 615 361 q 615 500 559 584 q 503 668 411 668 q 319 668 264 584 q 208 500 208 361 q 208 222 264 138 q 319 54 411 54 z"},"(":{"x_min":0,"x_max":363,"ha":363,"o":"m 309 -78 l 309 -151 q 190 -86 119 40 q 48 167 48 314 q 48 458 120 586 q 192 714 309 777 l 309 705 q 193 591 193 313 q 193 36 309 -78 z"},"C":{"x_min":0,"x_max":726,"ha":726,"o":"m 670 29 q 561 -18 432 -18 q 251 -18 150 82 q 48 183 48 362 q 48 543 147 642 q 246 741 427 741 q 483 741 542 733 q 601 725 664 709 l 664 558 l 586 558 l 578 630 q 541 649 504 659 q 466 668 429 668 q 326 668 267 587 q 208 505 208 362 q 208 224 276 143 q 344 62 459 62 q 568 62 670 115 z"},"W":{"x_min":0,"x_max":963,"ha":963,"o":"m 243 -9 l 81 650 l 39 650 l 39 723 l 296 723 l 296 650 l 224 650 l 326 237 l 466 717 l 550 717 l 684 226 l 806 650 l 734 650 l 734 723 l 926 723 l 926 650 l 884 650 l 695 -9 l 609 -9 l 472 490 l 327 -9 z"},"A":{"x_min":0,"x_max":761,"ha":761,"o":"m 202 209 l 148 72 l 220 72 l 220 0 l 25 0 l 25 72 l 67 72 l 328 732 l 441 732 l 702 72 l 744 72 l 744 0 l 474 0 l 474 72 l 546 72 l 492 209 z m 232 285 l 462 285 l 347 575 z"},"f":{"x_min":0,"x_max":446,"ha":446,"o":"m 114 464 l 39 464 l 39 536 l 114 536 l 114 558 q 114 670 161 727 q 208 783 301 783 q 344 783 382 775 q 419 767 452 750 l 452 639 l 367 639 l 367 690 q 354 702 341 707 q 328 712 315 712 q 283 712 271 689 q 259 666 259 606 l 259 536 l 395 536 l 395 464 l 259 464 l 259 72 l 343 72 l 343 0 l 42 0 l 42 72 l 114 72 z"},"Q":{"x_min":0,"x_max":822,"ha":822,"o":"m 467 -14 q 430 -18 405 -18 q 242 -18 145 85 q 48 188 48 361 q 48 538 146 639 q 243 741 411 741 q 580 741 677 639 q 774 538 774 361 q 774 231 723 144 q 671 56 568 11 q 697 -40 901 -62 l 778 -148 q 617 -117 467 -14 z m 615 361 q 615 500 559 584 q 503 668 411 668 q 319 668 264 584 q 208 500 208 361 q 208 223 264 138 q 319 54 411 54 q 503 54 559 138 q 615 223 615 361 z"},"w":{"x_min":0,"x_max":848,"ha":848,"o":"m 212 -6 l 59 464 l 16 464 l 16 536 l 259 536 l 259 464 l 193 464 l 285 186 l 420 536 l 495 536 l 621 186 l 714 464 l 647 464 l 647 536 l 831 536 l 831 464 l 789 464 l 632 -6 l 560 -6 l 428 358 l 288 -6 z"},"-":{"x_min":0,"x_max":325,"ha":325,"o":"m 48 261 l 48 351 l 277 351 l 277 261 z"},"E":{"x_min":0,"x_max":619,"ha":619,"o":"m 586 0 l 39 0 l 39 72 l 111 72 l 111 650 l 39 650 l 39 723 l 563 723 l 563 578 l 485 578 l 485 650 l 262 650 l 262 410 l 413 410 l 413 458 l 485 458 l 485 289 l 413 289 l 413 337 l 262 337 l 262 78 l 507 78 l 507 157 l 586 157 z"},"s":{"x_min":0,"x_max":560,"ha":560,"o":"m 66 25 l 66 152 l 151 152 l 151 101 q 185 81 214 70 q 244 60 269 60 q 315 60 338 76 q 361 93 361 125 q 361 171 271 207 l 227 224 q 72 285 72 389 q 72 462 132 505 q 191 548 294 548 q 339 548 382 542 q 425 535 467 521 l 467 395 l 383 395 l 383 446 q 360 461 337 469 q 313 476 291 476 q 255 476 233 458 q 211 440 211 412 q 211 386 231 369 q 252 352 312 329 l 355 312 q 438 280 472 245 q 505 210 505 157 q 505 83 442 35 q 378 -12 279 -12 q 218 -12 165 -3 q 111 7 66 25 z"},">":{"x_min":0,"x_max":663,"ha":663,"o":"m 66 554 l 597 290 l 66 24 l 66 127 l 395 290 l 66 453 z"},"l":{"x_min":0,"x_max":355,"ha":355,"o":"m 253 771 l 253 72 l 325 72 l 325 0 l 36 0 l 36 72 l 108 72 l 108 699 l 36 699 l 36 771 z"},"8":{"x_min":0,"x_max":663,"ha":663,"o":"m 212 385 q 105 460 105 555 q 105 637 172 689 q 238 741 343 741 q 444 741 504 697 q 565 652 565 578 q 565 471 433 404 q 598 314 598 195 q 598 101 523 41 q 448 -18 330 -18 q 209 -18 138 35 q 66 88 66 178 q 66 242 105 297 q 145 353 212 385 z m 371 438 q 441 496 441 570 q 441 613 411 641 q 380 668 332 668 q 287 668 258 643 q 229 618 229 578 q 229 517 340 455 z m 270 346 q 204 281 204 195 q 204 134 242 94 q 280 54 339 54 q 394 54 431 87 q 467 119 467 168 q 467 212 439 240 q 411 269 319 319 z"},"\\":{"x_min":0,"x_max":563,"ha":563,"o":"m 450 -145 l 6 771 l 113 771 l 557 -145 z"},"e":{"x_min":0,"x_max":598,"ha":598,"o":"m 532 21 q 457 -12 357 -12 q 211 -12 130 63 q 48 139 48 274 q 48 396 120 472 q 192 548 308 548 q 420 548 476 480 q 532 411 532 274 l 532 253 l 197 253 q 203 165 245 121 q 287 77 366 77 q 447 77 532 116 z m 200 325 l 390 325 l 390 338 q 390 407 369 442 q 348 476 305 476 q 258 476 232 438 q 206 401 200 325 z"},"b":{"x_min":0,"x_max":667,"ha":667,"o":"m 84 -6 l 84 699 l 12 699 l 12 771 l 229 771 l 229 435 q 260 492 305 520 q 351 548 411 548 q 504 548 559 476 q 613 404 613 281 q 613 147 551 68 q 489 -12 386 -12 q 341 -12 302 4 q 263 21 229 54 l 220 54 l 208 -6 z m 229 126 q 261 101 289 88 q 317 75 343 75 q 396 75 428 127 q 459 180 459 266 q 459 353 433 396 q 406 440 353 440 q 319 440 288 421 q 257 403 229 366 z"},"%":{"x_min":0,"x_max":801,"ha":801,"o":"m 34 -18 l 653 741 l 770 741 l 144 -18 z m 205 361 q 118 361 74 406 q 30 452 30 542 q 30 632 74 677 q 118 723 205 723 q 292 723 336 677 q 380 632 380 542 q 380 452 336 406 q 292 361 205 361 z m 205 422 q 238 422 255 452 q 271 482 271 542 q 271 603 255 633 q 238 663 205 663 q 172 663 155 633 q 139 603 139 542 q 139 482 155 452 q 172 422 205 422 z m 597 0 q 509 0 466 45 q 422 90 422 181 q 422 271 466 316 q 509 361 597 361 q 684 361 728 316 q 771 271 771 181 q 771 90 728 45 q 684 0 597 0 z m 597 60 q 630 60 646 90 q 663 121 663 181 q 663 241 646 271 q 630 301 597 301 q 563 301 547 271 q 530 241 530 181 q 530 121 547 90 q 563 60 597 60 z"},"m":{"x_min":0,"x_max":1000,"ha":1000,"o":"m 247 435 q 287 492 333 520 q 378 548 431 548 q 490 548 524 520 q 559 492 569 435 l 578 435 q 618 492 664 520 q 710 548 763 548 q 833 548 869 510 q 904 472 904 395 l 904 72 l 976 72 l 976 0 l 705 0 l 705 72 l 765 72 l 765 362 q 765 404 750 425 q 734 446 703 446 q 672 446 640 426 q 608 406 575 366 l 575 72 l 636 72 l 636 0 l 376 0 l 376 72 l 437 72 l 437 362 q 437 404 421 425 q 406 446 375 446 q 344 446 312 426 q 280 406 247 366 l 247 72 l 307 72 l 307 0 l 36 0 l 36 72 l 108 72 l 108 464 l 36 464 l 36 536 l 247 536 z"},"#":{"x_min":0,"x_max":663,"ha":663,"o":"m 102 0 l 154 208 l 21 208 l 35 280 l 172 280 l 213 443 l 67 443 l 82 515 l 231 515 l 283 723 l 357 723 l 306 515 l 434 515 l 485 723 l 560 723 l 508 515 l 642 515 l 627 443 l 490 443 l 449 280 l 595 280 l 581 208 l 431 208 l 379 0 l 305 0 l 357 208 l 229 208 l 177 0 z m 247 280 l 375 280 l 416 443 l 288 443 z"},",":{"x_min":0,"x_max":325,"ha":325,"o":"m 84 -145 l 84 -90 q 137 -85 145 0 l 84 0 l 84 157 l 241 157 l 241 36 q 241 -132 84 -145 z"},"n":{"x_min":0,"x_max":687,"ha":687,"o":"m 253 435 q 286 492 332 520 q 377 548 437 548 q 509 548 550 503 q 590 458 590 379 l 590 72 l 663 72 l 663 0 l 386 0 l 386 72 l 446 72 l 446 363 q 446 404 430 425 q 414 446 382 446 q 351 446 319 426 q 287 406 253 366 l 253 72 l 313 72 l 313 0 l 36 0 l 36 72 l 108 72 l 108 464 l 36 464 l 36 536 l 253 536 z"},"h":{"x_min":0,"x_max":687,"ha":687,"o":"m 253 435 q 286 492 332 520 q 377 548 437 548 q 509 548 550 503 q 590 458 590 379 l 590 72 l 663 72 l 663 0 l 386 0 l 386 72 l 446 72 l 446 363 q 446 404 430 425 q 414 446 382 446 q 354 446 321 426 q 289 406 253 366 l 253 72 l 313 72 l 313 0 l 36 0 l 36 72 l 108 72 l 108 699 l 36 699 l 36 771 l 253 771 z"},"z":{"x_min":0,"x_max":613,"ha":613,"o":"m 66 0 l 66 63 l 366 464 l 154 464 l 154 404 l 75 404 l 75 536 l 535 536 l 535 476 l 238 78 l 468 78 l 468 139 l 547 139 l 547 0 z"},"B":{"x_min":0,"x_max":646,"ha":646,"o":"m 399 375 q 499 355 549 307 q 599 258 599 180 q 599 90 539 45 q 479 0 359 0 l 39 0 l 39 72 l 111 72 l 111 650 l 39 650 l 39 723 l 360 723 q 460 723 515 681 q 569 639 569 562 q 569 499 527 452 q 484 406 399 375 z m 247 72 l 280 72 q 371 72 410 101 q 450 129 450 194 q 450 257 402 297 q 353 337 276 337 l 247 337 z m 247 407 l 277 407 q 351 407 388 440 q 425 473 425 540 q 425 600 391 625 q 358 650 278 650 l 247 650 z"},"K":{"x_min":0,"x_max":739,"ha":739,"o":"m 39 0 l 39 72 l 111 72 l 111 650 l 39 650 l 39 723 l 316 723 l 316 650 l 256 650 l 257 376 l 513 650 l 453 650 l 453 723 l 660 723 l 660 650 l 612 650 l 386 408 l 663 72 l 718 72 l 718 0 l 443 0 l 443 72 l 491 72 l 256 356 l 256 72 l 316 72 l 316 0 z"},"R":{"x_min":0,"x_max":718,"ha":718,"o":"m 256 309 l 256 72 l 316 72 l 316 0 l 39 0 l 39 72 l 111 72 l 111 650 l 39 650 l 39 723 l 351 723 q 467 723 530 676 q 593 628 593 542 q 593 468 558 417 q 523 365 453 337 l 644 72 l 692 72 l 692 0 l 506 0 l 312 309 z m 256 378 l 281 378 q 364 378 405 417 q 446 456 446 533 q 446 592 410 621 q 375 650 304 650 l 256 650 z"},"T":{"x_min":0,"x_max":732,"ha":732,"o":"m 291 645 l 107 645 l 107 566 l 29 566 l 29 723 l 704 723 l 704 566 l 625 566 l 625 645 l 442 645 l 442 72 l 514 72 l 514 0 l 219 0 l 219 72 l 291 72 z"},"P":{"x_min":0,"x_max":631,"ha":631,"o":"m 256 297 l 256 72 l 334 72 l 334 0 l 39 0 l 39 72 l 111 72 l 111 650 l 39 650 l 39 723 l 353 723 q 469 723 532 672 q 596 622 596 531 q 596 416 519 356 q 442 297 293 297 z m 256 369 l 280 369 q 364 369 406 409 q 449 450 449 530 q 449 590 413 620 q 376 650 304 650 l 256 650 z"},"|":{"x_min":0,"x_max":271,"ha":271,"o":"m 90 -145 l 90 771 l 181 771 l 181 -145 z"},"t":{"x_min":0,"x_max":426,"ha":426,"o":"m 378 4 q 333 -12 287 -12 q 198 -12 153 32 q 108 77 108 167 l 108 464 l 36 464 l 36 536 l 108 536 l 108 626 l 253 650 l 253 536 l 372 536 l 372 464 l 253 464 l 253 163 q 253 116 272 93 q 291 69 328 69 q 350 69 378 80 z"},"M":{"x_min":0,"x_max":918,"ha":918,"o":"m 111 72 l 111 650 l 39 650 l 39 723 l 267 723 l 469 246 l 674 723 l 876 723 l 876 650 l 804 650 l 804 72 l 876 72 l 876 0 l 611 0 l 611 72 l 671 72 l 670 531 l 475 78 l 403 78 l 211 536 l 211 72 l 274 72 l 274 0 l 39 0 l 39 72 z"},"g":{"x_min":0,"x_max":633,"ha":633,"o":"m 148 19 q 93 49 93 89 q 93 142 195 190 q 135 212 105 255 q 75 297 75 360 q 75 446 134 497 q 193 548 293 548 q 324 548 352 543 q 379 539 404 529 l 604 545 l 567 455 l 478 472 q 514 419 514 363 q 514 279 454 226 q 395 173 300 173 q 281 173 265 176 q 219 157 219 127 q 219 100 282 100 l 364 100 q 478 100 526 71 q 574 42 574 -27 q 574 -107 497 -156 q 420 -205 294 -205 q 181 -205 108 -173 q 36 -141 36 -90 q 36 -54 64 -26 q 92 1 148 19 z m 208 358 q 208 304 232 270 q 256 236 295 236 q 334 236 357 271 q 381 305 381 362 q 381 424 359 454 q 338 485 295 485 q 251 485 230 453 q 208 421 208 358 z m 214 0 q 195 -15 185 -31 q 175 -47 175 -64 q 175 -98 207 -115 q 239 -133 302 -133 q 361 -133 402 -108 q 443 -83 443 -46 q 443 -19 421 -10 q 398 0 334 0 z"},"j":{"x_min":0,"x_max":390,"ha":390,"o":"m 294 536 l 294 11 q 294 -97 243 -151 q 191 -205 89 -205 q 21 -205 -42 -184 l -42 -66 l 42 -66 l 42 -121 q 68 -133 88 -133 q 119 -133 134 -106 q 149 -79 149 -26 l 149 464 l 77 464 l 77 536 z m 149 626 l 149 771 l 294 771 l 294 626 z"},"i":{"x_min":0,"x_max":355,"ha":355,"o":"m 253 536 l 253 72 l 325 72 l 325 0 l 36 0 l 36 72 l 108 72 l 108 464 l 36 464 l 36 536 z m 108 626 l 108 771 l 253 771 l 253 626 z"},"y":{"x_min":0,"x_max":624,"ha":624,"o":"m 104 -193 l 264 6 l 60 464 l 18 464 l 18 536 l 276 536 l 276 464 l 216 464 l 346 173 l 476 464 l 416 464 l 416 536 l 592 536 l 592 464 l 550 464 l 254 -193 z"},"@":{"x_min":0,"x_max":855,"ha":855,"o":"m 564 22 q 469 -18 392 -18 q 254 -18 164 67 q 75 152 75 282 q 75 452 200 590 q 336 741 532 741 q 669 741 760 654 q 852 567 852 437 q 852 314 777 229 q 702 145 594 145 q 514 145 514 198 q 514 210 521 238 q 528 266 541 309 l 523 309 q 471 227 424 186 q 376 145 333 145 q 291 145 269 172 q 248 200 248 254 q 248 375 328 473 q 408 571 505 571 q 519 571 541 566 q 562 562 592 553 l 655 553 l 604 298 q 602 284 600 271 q 599 259 599 248 q 599 212 635 212 q 696 212 744 281 q 792 349 792 436 q 792 539 716 610 q 641 681 530 681 q 374 681 254 562 q 135 442 135 286 q 135 179 207 110 q 279 42 393 42 q 462 42 543 78 z m 538 397 l 558 497 q 538 508 519 514 q 500 520 480 520 q 420 520 377 450 q 333 380 333 283 q 333 250 344 234 q 354 218 373 218 q 401 218 448 269 q 495 320 538 397 z"},".":{"x_min":0,"x_max":325,"ha":325,"o":"m 84 0 l 84 157 l 241 157 l 241 0 z"},"p":{"x_min":0,"x_max":685,"ha":685,"o":"m 253 0 l 253 -121 l 325 -121 l 325 -193 l 36 -193 l 36 -121 l 108 -121 l 108 464 l 36 464 l 36 536 l 253 536 l 253 435 q 283 492 329 520 q 374 548 435 548 q 527 548 582 476 q 637 404 637 281 q 637 147 575 68 q 513 -12 409 -12 q 365 -12 325 4 q 286 21 251 54 z m 253 126 q 284 101 313 88 q 341 75 367 75 q 420 75 452 127 q 483 180 483 266 q 483 353 457 396 q 430 440 376 440 q 342 440 311 421 q 280 403 253 366 z"},"X":{"x_min":0,"x_max":678,"ha":678,"o":"m 254 358 l 80 650 l 38 650 l 38 723 l 309 723 l 309 650 l 249 650 l 369 450 l 507 650 l 447 650 l 447 723 l 642 723 l 642 650 l 600 650 l 418 388 l 606 72 l 649 72 l 649 0 l 378 0 l 378 72 l 438 72 l 304 295 l 159 72 l 219 72 l 219 0 l 26 0 l 26 72 l 69 72 z"},"*":{"x_min":0,"x_max":482,"ha":482,"o":"m 192 526 l 48 539 l 82 642 l 207 569 q 192 553 192 532 z m 219 581 l 187 723 l 295 723 l 265 581 q 251 586 241 586 q 231 586 219 581 z m 291 526 q 292 534 292 538 q 292 553 279 570 l 401 642 l 434 539 z m 250 485 q 272 489 287 511 l 396 416 l 308 355 z m 234 485 l 177 355 l 89 416 l 197 512 q 208 491 234 485 z"},"Y":{"x_min":0,"x_max":693,"ha":693,"o":"m 268 313 l 64 650 l 22 650 l 22 723 l 292 723 l 292 650 l 232 650 l 385 400 l 537 650 l 477 650 l 477 723 l 664 723 l 664 650 l 622 650 l 418 314 l 418 72 l 491 72 l 491 0 l 196 0 l 196 72 l 268 72 z"},"c":{"x_min":0,"x_max":572,"ha":572,"o":"m 509 13 q 428 -12 340 -12 q 207 -12 127 66 q 48 144 48 274 q 48 402 124 475 q 200 548 333 548 q 378 548 423 542 q 467 536 512 524 l 512 386 l 434 386 l 428 452 q 407 464 385 470 q 364 476 340 476 q 277 476 240 422 q 202 367 202 276 q 202 177 243 128 q 284 78 365 78 q 441 78 509 105 z"},"!":{"x_min":0,"x_max":313,"ha":313,"o":"m 84 0 l 84 121 l 229 121 l 229 0 z m 121 205 l 84 578 l 84 723 l 229 723 l 229 578 l 193 205 z"},"/":{"x_min":0,"x_max":563,"ha":563,"o":"m 6 -145 l 450 771 l 557 771 l 113 -145 z"},"[":{"x_min":0,"x_max":363,"ha":363,"o":"m 84 -145 l 84 771 l 311 771 l 311 699 l 208 699 l 208 -72 l 311 -72 l 311 -145 z"},"6":{"x_min":0,"x_max":663,"ha":663,"o":"m 214 382 q 246 424 289 445 q 332 465 386 465 q 483 465 546 401 q 610 337 610 240 q 610 128 536 55 q 461 -18 349 -18 q 213 -18 138 78 q 63 173 63 345 q 63 530 149 635 q 234 741 385 741 q 424 741 472 733 q 520 726 577 711 l 577 587 l 498 587 l 492 642 q 467 655 441 662 q 416 668 389 668 q 312 668 263 595 q 213 521 213 407 z m 218 257 q 218 167 255 110 q 292 53 351 53 q 404 53 435 95 q 465 138 465 212 q 465 296 433 344 q 400 393 344 393 q 289 393 253 355 q 218 317 218 257 z"},"r":{"x_min":0,"x_max":494,"ha":494,"o":"m 253 366 l 253 72 l 325 72 l 325 0 l 36 0 l 36 72 l 108 72 l 108 464 l 36 464 l 36 536 l 253 536 l 253 435 q 315 548 424 548 q 441 548 458 542 l 458 386 l 374 386 l 374 435 q 305 435 253 366 z"},"2":{"x_min":0,"x_max":663,"ha":663,"o":"m 75 0 l 75 72 q 111 162 218 263 l 274 317 q 349 387 378 436 q 407 484 407 539 q 407 598 374 633 q 342 668 287 668 q 255 668 226 659 q 197 650 171 631 l 166 566 l 87 566 l 87 699 q 144 720 200 730 q 256 741 312 741 q 424 741 492 686 q 560 632 560 543 q 560 478 528 430 q 496 382 413 323 l 360 286 q 230 195 224 121 l 558 121 l 558 0 z"},"{":{"x_min":0,"x_max":363,"ha":363,"o":"m 158 313 q 262 267 262 154 q 262 119 252 64 l 246 29 q 241 1 241 -17 q 241 -68 308 -72 l 308 -145 l 273 -145 q 201 -145 153 -102 q 104 -60 104 3 q 104 38 118 97 l 130 149 q 139 188 139 210 q 139 277 76 277 l 57 277 l 57 350 l 76 350 q 139 350 139 417 q 139 438 130 478 l 118 529 q 104 588 104 624 q 104 686 153 729 q 202 771 273 771 l 308 771 l 308 699 q 241 695 241 643 q 241 625 246 597 l 252 562 q 262 508 262 472 q 262 359 158 313 z"},"9":{"x_min":0,"x_max":663,"ha":663,"o":"m 455 340 q 423 299 380 278 q 336 257 282 257 q 185 257 122 321 q 59 385 59 483 q 59 595 133 668 q 207 741 320 741 q 455 741 530 645 q 605 549 605 377 q 605 193 520 87 q 434 -18 283 -18 q 244 -18 197 -10 q 149 -3 92 12 l 92 136 l 170 136 l 176 81 q 202 68 228 61 q 253 54 279 54 q 356 54 405 128 q 455 202 455 316 z m 450 466 q 450 556 413 613 q 376 670 317 670 q 264 670 234 628 q 203 585 203 511 q 203 426 235 378 q 268 331 324 331 q 380 331 415 368 q 450 406 450 466 z"}," ":{"x_min":0,"x_max":332,"ha":332,"o":""},"I":{"x_min":0,"x_max":374,"ha":374,"o":"m 262 650 l 262 72 l 334 72 l 334 0 l 39 0 l 39 72 l 111 72 l 111 650 l 39 650 l 39 723 l 334 723 l 334 650 z"},"H":{"x_min":0,"x_max":816,"ha":816,"o":"m 262 340 l 262 72 l 334 72 l 334 0 l 39 0 l 39 72 l 111 72 l 111 650 l 39 650 l 39 723 l 334 723 l 334 650 l 262 650 l 262 413 l 554 413 l 554 650 l 482 650 l 482 723 l 777 723 l 777 650 l 705 650 l 705 72 l 777 72 l 777 0 l 482 0 l 482 72 l 554 72 l 554 340 z"},"4":{"x_min":0,"x_max":663,"ha":663,"o":"m 389 196 l 48 196 l 48 277 l 406 733 l 512 733 l 512 292 l 597 292 l 597 196 l 512 196 l 512 72 l 584 72 l 584 0 l 316 0 l 316 72 l 389 72 z m 151 292 l 389 292 l 389 595 z"},"~":{"x_min":0,"x_max":663,"ha":663,"o":"m 66 206 q 66 290 103 338 q 140 387 204 387 q 241 387 322 345 l 376 316 q 448 279 477 279 q 532 279 536 371 l 597 371 q 597 287 560 238 q 522 189 459 189 q 422 189 340 232 l 287 260 q 215 298 186 298 q 132 298 126 206 z"},"D":{"x_min":0,"x_max":809,"ha":809,"o":"m 39 0 l 39 72 l 111 72 l 111 650 l 39 650 l 39 723 l 396 723 q 568 723 664 631 q 761 539 761 375 q 761 204 667 102 q 574 0 417 0 z m 262 78 l 345 78 q 473 78 537 153 q 601 227 601 375 q 601 513 535 582 q 468 650 335 650 l 262 650 z"},"^":{"x_min":0,"x_max":663,"ha":663,"o":"m 66 193 l 332 723 l 597 193 l 496 193 l 332 521 l 167 193 z"},"0":{"x_min":0,"x_max":663,"ha":663,"o":"m 332 -18 q 206 -18 129 87 q 51 191 51 360 q 51 531 129 636 q 206 741 332 741 q 457 741 534 636 q 611 531 611 360 q 611 191 534 87 q 457 -18 332 -18 z m 332 54 q 395 54 427 131 q 458 208 458 361 q 458 515 426 592 q 394 668 330 668 q 268 668 236 592 q 205 515 205 361 q 205 208 237 131 q 269 54 332 54 z"},"F":{"x_min":0,"x_max":601,"ha":601,"o":"m 262 322 l 262 72 l 346 72 l 346 0 l 39 0 l 39 72 l 111 72 l 111 650 l 39 650 l 39 723 l 563 723 l 563 578 l 485 578 l 485 650 l 262 650 l 262 395 l 413 395 l 413 443 l 485 443 l 485 274 l 413 274 l 413 322 z"},"`":{"x_min":0,"x_max":653,"ha":653,"o":"m 175 771 l 309 771 l 416 626 l 333 626 z"},"k":{"x_min":0,"x_max":652,"ha":652,"o":"m 247 258 l 247 72 l 301 72 l 301 0 l 36 0 l 36 72 l 108 72 l 108 699 l 36 699 l 36 771 l 247 771 l 247 290 l 281 290 l 440 464 l 386 464 l 386 536 l 586 536 l 586 464 l 538 464 l 396 309 l 583 72 l 625 72 l 625 0 l 480 0 l 281 258 z"},"u":{"x_min":0,"x_max":687,"ha":687,"o":"m 434 0 l 434 101 q 401 44 355 16 q 309 -12 250 -12 q 178 -12 137 33 q 96 78 96 157 l 96 464 l 24 464 l 24 536 l 241 536 l 241 173 q 241 132 257 111 q 273 90 305 90 q 336 90 368 110 q 400 130 434 170 l 434 464 l 361 464 l 361 536 l 578 536 l 578 72 l 650 72 l 650 0 z"},"]":{"x_min":0,"x_max":363,"ha":363,"o":"m 279 771 l 279 -145 l 53 -145 l 53 -72 l 155 -72 l 155 699 l 53 699 l 53 771 z"},"U":{"x_min":0,"x_max":762,"ha":762,"o":"m 99 650 l 27 650 l 27 723 l 322 723 l 322 650 l 250 650 l 250 272 q 250 158 287 106 q 324 54 407 54 q 487 54 520 104 q 554 155 554 274 l 554 650 l 481 650 l 481 723 l 735 723 l 735 650 l 663 650 l 663 288 q 663 194 648 145 q 633 95 593 53 q 524 -18 391 -18 q 242 -18 171 54 q 99 125 99 274 z"},"o":{"x_min":0,"x_max":653,"ha":653,"o":"m 327 -12 q 197 -12 123 63 q 48 138 48 268 q 48 398 123 473 q 197 548 327 548 q 457 548 531 473 q 605 398 605 268 q 605 138 531 63 q 457 -12 327 -12 z m 327 60 q 383 60 417 118 q 452 175 452 268 q 452 361 417 418 q 383 476 327 476 q 271 476 237 418 q 202 361 202 268 q 202 175 237 118 q 271 60 327 60 z"},"N":{"x_min":0,"x_max":785,"ha":785,"o":"m 569 -7 l 211 504 l 211 72 l 283 72 l 283 0 l 39 0 l 39 72 l 111 72 l 111 650 l 39 650 l 39 723 l 215 723 l 574 207 l 574 650 l 501 650 l 501 723 l 746 723 l 746 650 l 673 650 l 673 -7 z"},"+":{"x_min":0,"x_max":663,"ha":663,"o":"m 286 24 l 286 244 l 66 244 l 66 334 l 286 334 l 286 554 l 376 554 l 376 334 l 597 334 l 597 244 l 376 244 l 376 24 z"},"G":{"x_min":0,"x_max":767,"ha":767,"o":"m 665 15 q 516 -18 419 -18 q 249 -18 148 84 q 48 187 48 362 q 48 542 147 642 q 246 741 426 741 q 490 741 551 733 q 612 726 671 710 l 671 557 l 589 557 l 583 629 q 543 649 504 659 q 465 668 427 668 q 325 668 266 586 q 208 504 208 359 q 208 218 273 136 q 338 55 451 55 q 482 55 514 66 l 514 254 l 441 254 l 441 327 l 719 327 l 719 254 l 665 254 z"},"q":{"x_min":0,"x_max":667,"ha":667,"o":"m 432 101 q 402 44 356 16 q 311 -12 250 -12 q 158 -12 103 60 q 48 132 48 255 q 48 389 110 469 q 172 548 276 548 q 321 548 360 532 q 400 515 434 482 l 432 536 l 577 536 l 577 -121 l 649 -121 l 649 -193 l 360 -193 l 360 -121 l 432 -121 z m 432 407 q 401 433 373 445 q 344 458 318 458 q 266 458 234 406 q 202 354 202 267 q 202 180 229 137 q 255 93 309 93 q 343 93 374 112 q 405 130 432 167 z"},"d":{"x_min":0,"x_max":685,"ha":685,"o":"m 432 0 l 432 101 q 402 44 356 16 q 311 -12 250 -12 q 158 -12 103 60 q 48 132 48 255 q 48 389 110 469 q 172 548 276 548 q 321 548 360 532 q 400 515 434 482 l 432 536 l 432 699 l 360 699 l 360 771 l 577 771 l 577 72 l 649 72 l 649 0 z m 432 410 q 401 436 373 448 q 345 461 318 461 q 266 461 234 409 q 202 356 202 271 q 202 184 229 140 q 255 96 308 96 q 343 96 374 115 q 405 133 432 170 z"},"1":{"x_min":0,"x_max":663,"ha":663,"o":"m 416 729 l 416 72 l 536 72 l 536 0 l 150 0 l 150 72 l 271 72 l 271 626 l 150 603 l 150 675 z"},"5":{"x_min":0,"x_max":663,"ha":663,"o":"m 114 6 l 114 126 l 192 126 l 199 72 q 256 56 282 56 q 335 56 370 99 q 406 141 406 204 q 406 287 346 331 q 287 375 176 375 l 134 375 l 134 723 l 546 723 l 546 611 l 218 611 l 218 447 l 232 447 q 387 447 474 384 q 560 320 560 206 q 560 103 485 42 q 410 -18 282 -18 q 224 -18 114 6 z"}}}
